<?xml version="1.0" encoding="UTF-8"?>
<svg xmlns="http://www.w3.org/2000/svg" xmlns:xlink="http://www.w3.org/1999/xlink" width="48px" height="48px" viewBox="0 0 48 48" version="1.1">
<g id="surface1">
<path style="fill-rule:nonzero;fill:rgb(1.960784%,25.882354%,38.039216%);fill-opacity:1;stroke-width:1;stroke-linecap:butt;stroke-linejoin:miter;stroke:rgb(1.960784%,25.882354%,38.039216%);stroke-opacity:1;stroke-miterlimit:4;" d="M 23.065104 23.335938 L 20.117188 25.026042 L 20.117188 23.440104 L 22.408854 22.127604 C 23.893229 21.057292 24.869792 19.364583 24.955729 17.440104 L 24.955729 17.427083 L 24.945312 10.299479 L 18.690104 6.697917 C 17.979167 6.304688 17.130208 6.072917 16.226562 6.072917 C 16.15625 6.072917 16.088542 6.072917 16.020833 6.075521 L 16.03125 6.075521 C 15.966146 6.072917 15.890625 6.072917 15.815104 6.072917 C 14.929688 6.072917 14.09375 6.286458 13.359375 6.666667 L 13.390625 6.651042 L 11.192708 7.914062 L 9.807292 7.114583 L 12.841146 5.377604 C 13.713542 4.960938 14.739583 4.716146 15.820312 4.716146 C 15.890625 4.716146 15.960938 4.71875 16.03125 4.71875 L 16.020833 4.71875 C 17.197917 4.729167 18.315104 4.989583 19.317708 5.453125 L 19.270833 5.432292 L 26.333333 9.513021 L 26.325521 17.294271 C 26.276042 19.796875 25.005208 21.994792 23.088542 23.320312 L 23.0625 23.335938 Z M 15.065104 10.138021 C 15.341146 10.091146 15.661458 10.067708 15.986979 10.067708 C 17.010417 10.067708 17.973958 10.320312 18.820312 10.765625 L 18.789062 10.75 L 21.5 12.3125 C 21.5 12.3125 21.505208 13.682292 21.505208 15.731771 C 21.364583 17.013021 20.861979 18.15625 20.106771 19.083333 L 20.114583 19.072917 L 20.117188 13.054688 Z M 29.786458 7.536458 L 20.023438 1.908854 C 18.908854 1.335938 17.588542 1.002604 16.192708 1.002604 C 16.127604 1.002604 16.065104 1.005208 16 1.005208 L 16.007812 1.005208 C 15.932292 1.002604 15.841146 1 15.747396 1 C 14.359375 1 13.052083 1.348958 11.90625 1.958333 L 11.950521 1.9375 L 2.908854 7.111979 L 16.664062 15.018229 L 16.664062 30.997396 L 25.71875 25.828125 C 26.90625 25.065104 27.867188 24.052083 28.544271 22.854167 L 28.567708 22.809896 C 29.190104 21.752604 29.619792 20.507812 29.78125 19.179688 L 29.783854 19.132812 Z M 2.213542 12.283854 L 11.856771 17.817708 L 11.848958 19.46875 L 6.364583 16.320312 L 2.911458 18.283854 L 11.84375 23.432292 L 11.848958 25.018229 L 2.278646 19.513021 C 2.544271 21.098958 3.153646 22.507812 4.026042 23.710938 L 4.007812 23.682292 C 4.653646 24.585938 5.466146 25.330729 6.403646 25.882812 L 6.440104 25.903646 L 15.283854 30.994792 L 15.283854 15.809896 L 2.221354 8.309896 Z M 2.213542 12.283854 " transform="matrix(1.5,0,0,1.5,0,0)"/>
</g>
</svg>
